PathFileType	4	(X/Y/Z)	/Users/itak/Documents/Research/Walk-IL/dataset/trc/00043_00004.trc
DataRate	CameraRate	NumFrames	NumMarkers	Units	OrigDataRate	OrigDataStartFrame	OrigNumFrames
100.000000	100.000000	4	53	mm	100.000000	0	474
Frame#	Time	RPSI			LPSI			L3			STRN			T10			C7			CLAV			RBAK			LBAK			LSHO			LUPA			LAEL			LAOL			LWTS			LWPS			LFRA			LIFD			LHPS			LHTS			RSHO			RUPA			RAEL			RAOL			RWTS			RWPS			RFRA			RIFD			RHTS			RHPS			RBHD			LFHD			RFHD			LBHD			LHIP			RHIP			RASI			LASI			LKNE			LTHI			LANK			LTIP			LTOE			LMT1			LMT5			LHEE			RKNE			RTHI			RANK			RTIP			RTOE			RMT1			RMT5			RHEE			
		X1	Y1	Z1	X2	Y2	Z2	X3	Y3	Z3	X4	Y4	Z4	X5	Y5	Z5	X6	Y6	Z6	X7	Y7	Z7	X8	Y8	Z8	X9	Y9	Z9	X10	Y10	Z10	X11	Y11	Z11	X12	Y12	Z12	X13	Y13	Z13	X14	Y14	Z14	X15	Y15	Z15	X16	Y16	Z16	X17	Y17	Z17	X18	Y18	Z18	X19	Y19	Z19	X20	Y20	Z20	X21	Y21	Z21	X22	Y22	Z22	X23	Y23	Z23	X24	Y24	Z24	X25	Y25	Z25	X26	Y26	Z26	X27	Y27	Z27	X28	Y28	Z28	X29	Y29	Z29	X30	Y30	Z30	X31	Y31	Z31	X32	Y32	Z32	X33	Y33	Z33	X34	Y34	Z34	X35	Y35	Z35	X36	Y36	Z36	X37	Y37	Z37	X38	Y38	Z38	X39	Y39	Z39	X40	Y40	Z40	X41	Y41	Z41	X42	Y42	Z42	X43	Y43	Z43	X44	Y44	Z44	X45	Y45	Z45	X46	Y46	Z46	X47	Y47	Z47	X48	Y48	Z48	X49	Y49	Z49	X50	Y50	Z50	X51	Y51	Z51	X52	Y52	Z52	X53	Y53	Z53	

1	0	-1266.651123046875	1079.25634765625	190.9147033691406	-1278.594482421875	1068.229370117188	28.48957061767578	-1277.921508789062	1127.8154296875	99.40552520751953	-1051.837524414062	1324.495727539062	92.57678985595703	-1300.442626953125	1274.574340820312	92.53997039794922	-1252.056396484375	1542.112426757812	75.05325317382812	-1093.763305664062	1450.384033203125	84.75708770751953	-1302.768798828125	1406.871337890625	158.6962280273438	-1268.143310546875	1496.777709960938	-21.89972305297852	-1164.6787109375	1502.044921875	-95.78894805908203	-1192.034057617188	1372.641357421875	-169.8200988769531	-1186.7060546875	1153.382080078125	-187.7060852050781	-1243.033569335938	1142.795654296875	-98.85784912109375	-1093.383056640625	905.296630859375	-122.7131652832031	-1169.516845703125	887.6744384765625	-164.8755798339844	-1170.288452148438	1037.89990234375	-189.4421081542969	-1060.835083007812	724.5299682617188	-96.48719787597656	-1133.6513671875	798.7072143554688	-161.197021484375	-1070.026123046875	812.2872314453125	-132.8373718261719	-1176.705810546875	1530.769165039062	252.6687774658203	-1191.631713867188	1462.096435546875	325.3882446289062	-1231.292846679688	1194.778198242188	352.9841003417969	-1229.3935546875	1165.637084960938	256.7280883789062	-1115.8720703125	927.8926391601562	331.34130859375	-1182.039428710938	919.0590209960938	395.2185974121094	-1222.287475585938	1119.053833007812	370.20068359375	-1112.640258789062	741.252197265625	321.5368041992188	-1079.054443359375	824.2765502929688	339.5444946289062	-1146.665161132812	817.1744384765625	398.1826171875	-1216.189331054688	1708.960693359375	0.4100918471813202	-1057.324951171875	1761.178466796875	140.8575439453125	-1046.687622070312	1760.534057617188	43.03239440917969	-1224.415893554688	1709.625	144.7305145263672	-1190.54638671875	960.8112182617188	-84.82969665527344	-1115.8701171875	985.1744384765625	270.8319396972656	-1051.765625	999.5995483398438	205.7097473144531	-1070.942138671875	1010.458862304688	-28.18651008605957	-1147.023559570312	517.0679321289062	-23.32551383972168	-1170.479125976562	652.9442138671875	-63.2440071105957	-1222.4619140625	40.49695205688477	0.1512687802314758	-1217.544921875	286.0440979003906	-30.13872146606445	-1004.184997558594	41.54861068725586	72.87647247314453	-1064.13134765625	52.05627822875977	86.73851776123047	-1098.167846679688	40.8811149597168	-15.52619934082031	-1292.997680664062	49.2046012878418	50.81405258178711	-1116.67431640625	529.2767333984375	237.8778381347656	-1118.566528320312	798.3136596679688	284.001953125	-1240.250610351562	46.72127532958984	216.7549743652344	-1141.622436523438	404.5310363769531	237.3918151855469	-1007.439208984375	46.96641540527344	172.1013946533203	-1071.837768554688	52.21012496948242	143.697265625	-1090.453247070312	44.85082626342773	238.0375213623047	-1270.947509765625	66.88778686523438	191.7032623291016	
2	0.01	-1266.324951171875	1079.271728515625	190.9123687744141	-1278.265869140625	1068.188720703125	28.41384696960449	-1277.665161132812	1127.724487304688	99.3270263671875	-1051.83056640625	1324.690063476562	92.57661437988281	-1300.394653320312	1274.478515625	92.47756958007812	-1252.2646484375	1542.037963867188	75.12843322753906	-1093.941528320312	1450.535034179688	84.75574493408203	-1302.863159179688	1406.745971679688	158.6992492675781	-1268.409790039062	1496.748291015625	-21.89282035827637	-1164.939331054688	1502.126098632812	-95.80284881591797	-1192.109375	1372.663940429688	-169.7742004394531	-1186.419311523438	1153.416748046875	-187.5452575683594	-1242.654052734375	1142.7734375	-98.64224243164062	-1092.88427734375	905.3323974609375	-122.6499099731445	-1169.053955078125	887.6994018554688	-164.7353057861328	-1169.941040039062	1037.945556640625	-189.3031768798828	-1060.286987304688	724.531494140625	-96.6993408203125	-1133.273803710938	798.7760620117188	-161.1676330566406	-1069.515380859375	812.3502807617188	-132.8343658447266	-1176.9130859375	1530.823608398438	252.6203308105469	-1191.741943359375	1462.157348632812	325.4014892578125	-1231.020141601562	1194.767456054688	352.9169006347656	-1229.122924804688	1165.654541015625	256.6080932617188	-1115.7646484375	927.7966918945312	331.3545837402344	-1181.974365234375	919.0947875976562	395.2420654296875	-1222.038940429688	1119.09130859375	370.1076049804688	-1112.818725585938	741.1488037109375	321.5758361816406	-1082.573120117188	821.928466796875	342.1576538085938	-1146.7783203125	817.1659545898438	398.2537536621094	-1216.521606445312	1708.983520507812	0.2571999132633209	-1057.931396484375	1761.3232421875	141.0660247802734	-1047.151489257812	1760.6787109375	43.24186706542969	-1225.033081054688	1709.555419921875	144.6753692626953	-1190.032470703125	960.866455078125	-84.81589508056641	-1115.276611328125	985.2425537109375	270.6336975097656	-1051.526977539062	999.7080078125	205.7764282226562	-1070.422973632812	1010.583801269531	-28.03164672851562	-1146.459716796875	517.1741333007812	-23.02469635009766	-1169.9306640625	653.0199584960938	-62.98530197143555	-1222.450805664062	40.53264236450195	0.1928394883871078	-1217.223388671875	286.1000061035156	-29.97768783569336	-1004.184020996094	41.54623413085938	72.88487243652344	-1064.1357421875	52.04436492919922	86.76519012451172	-1098.148071289062	40.90066146850586	-15.49523162841797	-1292.981201171875	49.24044418334961	50.83724975585938	-1117.27783203125	529.3218383789062	238.106201171875	-1118.681518554688	798.3292236328125	284.2160949707031	-1240.252075195312	46.68693542480469	216.7635498046875	-1142.11865234375	404.5570678710938	237.484130859375	-1007.420654296875	46.93247985839844	172.1190185546875	-1071.813598632812	52.20793914794922	143.7511291503906	-1090.450317382812	44.81895065307617	238.0779571533203	-1275.987060546875	63.00973510742188	187.3428344726562	
3	0.02	-1265.935302734375	1079.269287109375	190.9232940673828	-1277.853271484375	1068.131469726562	28.34328269958496	-1277.353271484375	1127.613037109375	99.24884796142578	-1051.829223632812	1324.921142578125	92.58251953125	-1300.325561523438	1274.351318359375	92.41600036621094	-1252.508544921875	1541.932739257812	75.19514465332031	-1094.152099609375	1450.710571289062	84.76039886474609	-1302.983764648438	1406.584838867188	158.6935424804688	-1268.72802734375	1496.703857421875	-21.89028167724609	-1165.244506835938	1502.230712890625	-95.82006072998047	-1192.17822265625	1372.702392578125	-169.7245330810547	-1186.063110351562	1153.4619140625	-187.3538513183594	-1242.181518554688	1142.755493164062	-98.37515258789062	-1092.286987304688	905.382568359375	-122.5561294555664	-1168.500610351562	887.7380981445312	-164.5401611328125	-1169.51171875	1038.005981445312	-189.1250610351562	-1059.640747070312	724.525390625	-96.89161682128906	-1132.800537109375	798.8579711914062	-161.0815582275391	-1068.90673828125	812.4189453125	-132.7888488769531	-1177.17626953125	1530.891967773438	252.5591583251953	-1191.890014648438	1462.229248046875	325.4166564941406	-1230.685668945312	1194.754516601562	352.8375549316406	-1228.776000976562	1165.67041015625	256.4700622558594	-1115.578247070312	927.6986083984375	331.3763122558594	-1181.848999023438	919.1410522460938	395.2753601074219	-1221.71826171875	1119.133178710938	370.0030517578125	-1112.994140625	741.033203125	321.6344909667969	-1085.7421875	819.7314453125	344.5992126464844	-1146.8447265625	817.1488647460938	398.3432312011719	-1216.901000976562	1709.018920898438	0.07322380691766739	-1058.697509765625	1761.497192382812	141.3443603515625	-1047.720458984375	1760.852783203125	43.52845001220703	-1225.779418945312	1709.482666015625	144.5971527099609	-1189.385131835938	960.9302978515625	-84.78106689453125	-1114.786743164062	985.2005615234375	270.5470886230469	-1051.236450195312	999.8343505859375	205.8977508544922	-1069.801635742188	1010.718627929688	-27.81462669372559	-1145.749267578125	517.3013305664062	-22.65660667419434	-1169.206176757812	653.1068725585938	-62.65058898925781	-1222.430786132812	40.57351684570312	0.2452403903007507	-1216.802368164062	286.1697082519531	-29.78024864196777	-1004.181396484375	41.54305648803711	72.89634704589844	-1064.138671875	52.02933502197266	86.80020141601562	-1098.124389648438	40.92687606811523	-15.45393180847168	-1292.959106445312	49.28517913818359	50.86589813232422	-1118.003295898438	529.36669921875	238.3346710205078	-1118.794921875	798.334716796875	284.4459838867188	-1240.256103515625	46.65720748901367	216.7580871582031	-1142.72802734375	404.6015014648438	237.5846710205078	-1007.394958496094	46.89353561401367	172.1355590820312	-1071.787109375	52.19453430175781	143.8015747070312	-1090.449096679688	44.78257369995117	238.1172790527344	-1281.398681640625	58.82244873046875	182.6368560791016	
4	0.03	-1265.510009765625	1079.239990234375	190.9520416259766	-1277.374633789062	1068.056030273438	28.29130744934082	-1277.003295898438	1127.486206054688	99.18308258056641	-1051.835815429688	1325.172241210938	92.59996032714844	-1300.235717773438	1274.194946289062	92.36524963378906	-1252.7744140625	1541.796875	75.23750305175781	-1094.380859375	1450.896484375	84.77397918701172	-1303.127075195312	1406.39306640625	158.6734924316406	-1269.072265625	1496.64111328125	-21.8974781036377	-1165.568115234375	1502.3525390625	-95.83953094482422	-1192.224243164062	1372.755859375	-169.6771392822266	-1185.650512695312	1153.513061523438	-187.1443481445312	-1241.640502929688	1142.744873046875	-98.07435607910156	-1091.622802734375	905.4463500976562	-122.4263916015625	-1167.889526367188	887.7890014648438	-164.2902984619141	-1169.017211914062	1038.075927734375	-188.9127960205078	-1058.93798828125	724.5225219726562	-97.00938415527344	-1132.246337890625	798.9436645507812	-160.91845703125	-1068.237060546875	812.4847412109375	-132.6793670654297	-1177.486694335938	1530.96875	252.4906158447266	-1192.076538085938	1462.305541992188	325.43310546875	-1230.309204101562	1194.737670898438	352.7521057128906	-1228.369018554688	1165.679077148438	256.3255615234375	-1115.299438476562	927.61083984375	331.4077453613281	-1181.645385742188	919.1945190429688	395.3184814453125	-1221.33447265625	1119.173217773438	369.8989562988281	-1113.128784179688	740.9169311523438	321.7140197753906	-1088.129028320312	817.9511108398438	346.5839233398438	-1146.819702148438	817.1218872070312	398.4476013183594	-1217.292846679688	1709.06787109375	-0.1318401843309402	-1059.588134765625	1761.684692382812	141.6874847412109	-1048.363647460938	1761.045654296875	43.89175415039062	-1226.6201171875	1709.415161132812	144.4876861572266	-1188.631469726562	960.996337890625	-84.71848297119141	-1114.614135742188	984.9500732421875	270.68115234375	-1050.907104492188	999.9685668945312	206.0880126953125	-1069.1171875	1010.851257324219	-27.53820037841797	-1144.921142578125	517.4400024414062	-22.24085998535156	-1168.327392578125	653.1993408203125	-62.2524528503418	-1222.40185546875	40.61716842651367	0.3053828775882721	-1216.294189453125	286.2493286132812	-29.55686187744141	-1004.176086425781	41.53906631469727	72.91096496582031	-1064.139404296875	52.01103973388672	86.84290313720703	-1098.098754882812	40.95923233032227	-15.40328693389893	-1292.930419921875	49.33551025390625	50.89855575561523	-1118.803833007812	529.4057006835938	238.5308532714844	-1118.883544921875	798.3257446289062	284.665771484375	-1240.262451171875	46.63602828979492	216.7349700927734	-1143.42431640625	404.6658020019531	237.6844024658203	-1007.36328125	46.85081100463867	172.1466369628906	-1071.760620117188	52.16696548461914	143.8409729003906	-1090.452392578125	44.74449920654297	238.1509552001953	-1286.403564453125	54.92103958129883	178.2600708007812	
